<svg xmlns="http://www.w3.org/2000/svg" width="138.189" height="55.024" viewBox="0 0 138.189 55.024">
  <path id="KPMG_Logo" data-name="KPMG Logo" d="M107.556.2V27.643l-.35.289-.35.289-.336.3-.321.3-.306.3-.306.318-.292.318-.292.318V.2H74.324V25.185H71.786V.2H41.107V25.229H38.568V.2H7.89V28.728L.056,54.594H6.941L10.4,43.143h.992l5.719,11.451h8.315L19.881,43.143H32.456L28.969,54.594h7.513l3.443-11.422h1.663v-.029H58.335L55.009,54.565H62.6l3.224-11.422h3.414l.087,11.422h6.36l7.309-11.422h4.785l-2.48,11.422h7.469L95.2,43.143h4.318l-.029.651.015.665.029.636.058.636.044.3.044.3.058.3.058.3.073.3.073.289.087.289.087.289.1.289.1.275.117.275.117.26.131.275.131.26.146.246.146.26.161.246.175.231.175.246.19.217.19.231.19.217.219.217.219.2.277.231.277.231.292.217.306.2.306.2.306.188.321.159.336.173.321.145.336.145.336.13.35.13.35.116.35.1.35.1.35.087.7.159.715.116.7.1.7.087.686.058.671.029.656.029h.627l.846-.014.846-.014.861-.043.861-.043.861-.072.861-.072.861-.087.861-.1.875-.116.875-.13.875-.145.875-.145.875-.159.875-.173.875-.173.89-.2,2.6-10.367h8.519V.2H107.556ZM10.734,42.073l.044-.159.1.159ZM37.46,26.689l-.438,1.46L32.937,41.6l-.161.477H19.356l-1.036-2.2L32.777,25.229H23.484L12.179,37.3,15.84,25.229H8.984V1.286H37.46v25.4Zm7.921,11.364h0l-.219.014-.2.014-.219.014h-.8l-.248.014h-.233l-1.824-.014L42.478,35l.394-1.533.963-3.6h.627l.306-.014h1.707l.861.014.788.029.35.014.336.029.321.043.292.043.263.043.248.072.233.072.2.087.175.087.161.116.146.116.117.145.073.116L51.1,31l.058.13.044.145.029.159.015.159v.361l-.015.2-.014.2-.044.231-.044.231L51,33.309l-.161.549-.161.463-.175.448-.19.419-.2.39-.1.174-.1.173-.117.173-.131.159-.131.159-.131.145-.146.145-.146.13-.161.116-.161.13-.175.1-.19.116-.19.1-.2.087-.2.087-.219.072-.233.087-.248.058-.263.058-.263.058-.292.043-.292.043-.306.029-.321.029Zm20.744,4.019,2.991-10.555.117,10.555H66.126Zm4.551-16.887H63.558l-4.9,16.887H51.1l.35-.145.35-.145.336-.145.336-.159.321-.159.306-.188.306-.173.292-.188.292-.2.277-.2.263-.2.263-.231.248-.217.233-.246.233-.231.219-.26.219-.246.2-.275.19-.26.19-.289.175-.289.161-.289.161-.3.146-.318.146-.318.131-.318.117-.333.117-.347.087-.347.1-.347.073-.376.073-.361.1-.578.087-.549.058-.521.044-.492.015-.492-.015-.448-.014-.448-.058-.419-.058-.39-.1-.39-.1-.361-.146-.347-.161-.333-.175-.333-.2-.3-.233-.289-.19-.2-.19-.2-.2-.174-.219-.159-.233-.159-.233-.145-.248-.13-.248-.116-.263-.116-.263-.087-.277-.087-.277-.087-.292-.072-.292-.058-.292-.058-.306-.043-.627-.087-.627-.043L51.13,25.2l-.656-.014H42.2V1.286H70.678v23.9Zm17.3,16.887H83.7l6.477-10.121Zm15.916-16.41-.015,5.856-.365.506-.336.521-.336.521-.306.521-.292.521-.292.535-.248.521-.248.521-.233.506-.2.521-.2.506-.175.492-.161.492-.146.477-.131.463-.117.463-.073.3-.073.318-.073.3-.058.318-.058.3-.044.3-.044.3-.029.318H95.447l3.574-16.844-12.05-.014L76.191,42.073H75.4V1.286h28.491V25.663ZM120.32,48.969l-.6.1-.613.087-.613.087-.6.072-.6.058-.6.043-.584.029h-.963l-.379-.014-.365-.029-.365-.043-.35-.058-.336-.058-.336-.072-.321-.087-.306-.1-.306-.1-.292-.13-.277-.13-.277-.159-.263-.159-.248-.173-.233-.174-.233-.2-.2-.217-.2-.217-.19-.246-.175-.246-.161-.275-.146-.275-.146-.289-.117-.3-.1-.333-.087-.333-.087-.347-.058-.361-.044-.376-.029-.39-.015-.4h13.275l-1.459,5.827Zm16.835-6.9h-7.177l1.182-4.713H116.775l-1.182,4.713h-6.959V41.1l.087-.4.073-.4.087-.434.087-.434.131-.477.131-.477.146-.477.161-.463.175-.463.19-.463.2-.448.2-.448.233-.448.233-.419.248-.434.277-.4.277-.4.277-.39.306-.376.321-.361.336-.347.336-.318.365-.318.365-.3.379-.275.408-.26.408-.231.423-.217.438-.2.452-.173.467-.145.481-.116.5-.1.511-.072.525-.043.54-.014.423.014.423.029.423.058.408.087.2.058.19.058.19.058.175.087.175.072.175.1.161.1.161.1.146.13.146.13.131.13.131.159.117.145.1.173.087.188.087.188.073.2.058.217.044.217.044.246.015.246v.535l-.029.289h8.578l.131-.593.117-.68.058-.361.029-.39.029-.39v-.4l-.014-.419-.044-.434-.044-.2-.029-.217-.058-.217-.058-.217L132.3,28.6l-.073-.217-.087-.217-.1-.217-.1-.217-.131-.217-.131-.217-.146-.217-.175-.231-.19-.217-.19-.217-.2-.2-.219-.2-.233-.188-.233-.174-.248-.173-.263-.173-.263-.145-.277-.145-.292-.145-.292-.13-.306-.13-.321-.116-.321-.116-.321-.1-.35-.087-.336-.087-.365-.087-.365-.072-.365-.072-.379-.058-.394-.043-.8-.087-.817-.072-.861-.029-.875-.014-.656.014-.686.014-.715.043-.744.058-.773.087-.788.1-.8.13-.817.173-.408.087-.423.1-.408.116-.423.116-.423.13-.423.145-.423.145-.408.159-.423.173-.423.188-.408.188-.423.2-.408.217-.408.231-.408.231-.408.26V1.284h28.52V42.071Z" transform="translate(-0.05 -0.182)" fill="#fff" stroke="rgba(255,255,255,0)" stroke-miterlimit="10" stroke-width="0.008"/>
</svg>
